<!-- icon666.com - MILLIONS vector ICONS FREE --><svg id="svg5" viewBox="0 0 8.4666662 8.4666662" xmlns="http://www.w3.org/2000/svg" xmlns:inkscape="http://www.inkscape.org/namespaces/inkscape" xmlns:sodipodi="http://sodipodi.sourceforge.net/DTD/sodipodi-0.dtd" xmlns:svg="http://www.w3.org/2000/svg" inkscape:version="1.2 (dc2aedaf03, 2022-05-15)" sodipodi:docname="Box open 2.svg"><linearGradient id="linearGradient2739" inkscape:swatch="solid"><stop id="stop2737" offset="0" stop-color="#0ecc24"></stop></linearGradient><linearGradient id="linearGradient2667" inkscape:swatch="solid"><stop id="stop2665" offset="0"></stop></linearGradient><g id="layer1" inkscape:label="Layer 1" inkscape:groupmode="layer"><g id="g4259" stroke-width=".255" transform="matrix(1.038 0 0 1.038 -.161 -.116)"><g id="g802" stroke-width=".255"><path id="path21979" d="m3.4592873 1.1536058-2.79203439.8590485.56049759.9207647 2.7915365-.8585508zm1.5495815 0-.5614931.9207647 2.7920344.8585508.5619909-.920267zm-.6346664 1.1915192v1.5070678c.8165787-.2508248 1.6330643-.5019524 2.4495634-.7530361-.8165217-.2513419-1.6330028-.502816-2.4495634-.7540317zm-.2792532.0004978c-.8619773.2640514-1.7018606.5334799-2.4515542.7535341.8171909.2509925 1.6343297.5021549 2.4515548.7530358zm-.7083374.4867615c.023477.074192-.017693.1533723-.092089.1761895-.1839032.0577015-.373518.116966-.5580085.1761891-.0735536.0236699-.1524577-.0170573-.1762133-.0905834-.023653-.0735499.0165798-.1524394.0900977-.1761895.1852385-.059464.3756418-.1203299.5599998-.1781804.095485-.023902.1547956.01488.1762133.092575zm1.871648-.092577c.1843578.057845.3732677.1187171.5585064.1781804.074178.023052.1151096.1021582.091591.1761895-.023762.073246-.1023349.113901-.1757198.090586-.1844936-.059218-.3746035-.1184879-.5585064-.1761899-.0741774-.0230518-.1151093-.1021591-.0915911-.1761895.0358066-.0942369.1071686-.1092057.1757199-.0925765zm-4.0320027.5255847-.5609953.9212624 2.7940255.8560623.5619908-.9197693zm6.0141486 0-2.79303.8580531.5614931.9192716 2.7925322-.8585509zm-3.1454565 1.2726461-.4549687.7455705c-.033488.053244-.098527.077732-.158791.059725l-2.1782746-.6699182-.0194134 1.4747166 2.8114477 1.0730642zm.2787555.00348v2.6821666l2.7880521-1.0755527v-1.4737212l-2.1742924.6689231c-.060928.01912-.1270392-.00551-.1607822-.059725z" stroke-linecap="round" stroke-linejoin="round" stroke-width=".255" sodipodi:nodetypes="cccccccccccccccccccccccccccccccccccccccccccccccccccccccc" paint-order="stroke fill markers" fill="#000000" style="fill: rgb(255, 255, 255);"></path></g></g></g></svg>