<svg width="387" height="91" viewBox="0 0 387 91" fill="none" xmlns="http://www.w3.org/2000/svg">
<g filter="url(#filter0_d_2_11)">
<path d="M117.152 17.44C118.944 17.44 120.32 17.632 121.28 18.016C122.24 18.4 123.072 18.816 123.776 19.264C124.16 19.488 124.464 19.664 124.688 19.792C124.944 19.888 125.184 19.936 125.408 19.936C125.728 19.936 125.952 19.76 126.08 19.408C126.24 19.056 126.368 18.528 126.464 17.824H127.568C127.536 18.432 127.488 19.136 127.424 19.936C127.392 20.736 127.36 21.808 127.328 23.152C127.328 24.464 127.328 26.208 127.328 28.384H126.224C126.128 26.752 125.76 25.184 125.12 23.68C124.512 22.176 123.632 20.944 122.48 19.984C121.36 18.992 119.92 18.496 118.16 18.496C116.592 18.496 115.28 18.96 114.224 19.888C113.2 20.816 112.688 22.064 112.688 23.632C112.688 24.976 113.024 26.112 113.696 27.04C114.368 27.936 115.312 28.816 116.528 29.68C117.776 30.512 119.248 31.472 120.944 32.56C122.512 33.584 123.92 34.608 125.168 35.632C126.416 36.624 127.392 37.728 128.096 38.944C128.832 40.16 129.2 41.648 129.2 43.408C129.2 45.488 128.688 47.216 127.664 48.592C126.64 49.968 125.264 50.992 123.536 51.664C121.808 52.336 119.92 52.672 117.872 52.672C115.984 52.672 114.48 52.48 113.36 52.096C112.272 51.712 111.328 51.312 110.528 50.896C109.824 50.448 109.28 50.224 108.896 50.224C108.576 50.224 108.336 50.4 108.176 50.752C108.048 51.104 107.936 51.632 107.84 52.336H106.736C106.8 51.6 106.832 50.736 106.832 49.744C106.864 48.752 106.88 47.472 106.88 45.904C106.912 44.304 106.928 42.288 106.928 39.856H108.032C108.16 41.904 108.512 43.824 109.088 45.616C109.696 47.376 110.608 48.8 111.824 49.888C113.072 50.976 114.72 51.52 116.768 51.52C117.888 51.52 118.896 51.328 119.792 50.944C120.72 50.528 121.456 49.904 122 49.072C122.544 48.208 122.816 47.12 122.816 45.808C122.816 44.496 122.512 43.344 121.904 42.352C121.296 41.36 120.448 40.432 119.36 39.568C118.272 38.704 116.992 37.824 115.52 36.928C114.016 35.968 112.608 34.992 111.296 34C109.984 33.008 108.928 31.888 108.128 30.64C107.36 29.36 106.976 27.824 106.976 26.032C106.976 24.048 107.456 22.432 108.416 21.184C109.376 19.904 110.624 18.96 112.16 18.352C113.728 17.744 115.392 17.44 117.152 17.44ZM134.016 18.016C134.816 18.048 135.84 18.08 137.088 18.112C138.336 18.144 139.584 18.16 140.832 18.16C142.4 18.16 143.888 18.144 145.296 18.112C146.704 18.08 147.696 18.064 148.272 18.064C152.56 18.064 155.744 18.944 157.824 20.704C159.936 22.464 160.992 24.736 160.992 27.52C160.992 28.672 160.784 29.888 160.368 31.168C159.952 32.416 159.232 33.584 158.208 34.672C157.184 35.728 155.776 36.592 153.984 37.264C152.224 37.936 149.968 38.272 147.216 38.272H142.416V37.312H146.736C148.752 37.312 150.288 36.88 151.344 36.016C152.432 35.152 153.152 34.016 153.504 32.608C153.888 31.2 154.08 29.68 154.08 28.048C154.08 25.008 153.584 22.736 152.592 21.232C151.6 19.728 149.888 18.976 147.456 18.976C146.144 18.976 145.28 19.248 144.864 19.792C144.48 20.336 144.288 21.44 144.288 23.104V46.72C144.288 47.936 144.416 48.848 144.672 49.456C144.928 50.064 145.424 50.464 146.16 50.656C146.896 50.848 147.952 50.96 149.328 50.992V52C148.4 51.936 147.2 51.904 145.728 51.904C144.256 51.872 142.736 51.856 141.168 51.856C139.824 51.856 138.528 51.872 137.28 51.904C136.032 51.904 134.944 51.936 134.016 52V51.04C135.072 50.976 135.856 50.848 136.368 50.656C136.912 50.464 137.264 50.08 137.424 49.504C137.616 48.928 137.712 48.064 137.712 46.912V23.104C137.712 21.92 137.616 21.056 137.424 20.512C137.264 19.936 136.912 19.552 136.368 19.36C135.856 19.136 135.072 19.008 134.016 18.976V18.016ZM193.156 18.016C193.028 19.488 192.931 20.928 192.867 22.336C192.835 23.712 192.819 24.768 192.819 25.504C192.819 26.24 192.835 26.928 192.867 27.568C192.899 28.208 192.932 28.768 192.964 29.248H191.859C191.411 26.688 190.867 24.688 190.227 23.248C189.587 21.776 188.739 20.72 187.683 20.08C186.659 19.44 185.299 19.12 183.603 19.12H182.067V46.48C182.067 47.792 182.179 48.768 182.403 49.408C182.659 50.048 183.155 50.48 183.891 50.704C184.627 50.896 185.699 51.008 187.107 51.04V52C186.147 51.936 184.899 51.904 183.363 51.904C181.827 51.872 180.259 51.856 178.659 51.856C176.995 51.856 175.427 51.872 173.955 51.904C172.515 51.904 171.347 51.936 170.451 52V51.04C171.827 51.008 172.883 50.896 173.619 50.704C174.355 50.48 174.851 50.048 175.107 49.408C175.363 48.768 175.491 47.792 175.491 46.48V19.12H173.907C172.243 19.12 170.883 19.44 169.827 20.08C168.771 20.72 167.923 21.776 167.283 23.248C166.643 24.688 166.115 26.688 165.699 29.248H164.595C164.659 28.768 164.691 28.208 164.691 27.568C164.723 26.928 164.739 26.24 164.739 25.504C164.739 24.768 164.707 23.712 164.643 22.336C164.611 20.928 164.531 19.488 164.403 18.016C165.811 18.048 167.363 18.08 169.059 18.112C170.755 18.144 172.451 18.16 174.147 18.16C175.843 18.16 177.395 18.16 178.803 18.16C180.179 18.16 181.715 18.16 183.411 18.16C185.107 18.16 186.803 18.144 188.5 18.112C190.195 18.08 191.747 18.048 193.156 18.016Z" fill="white"/>
</g>
<path d="M110.816 65.04C111.669 65.04 112.405 65.1787 113.024 65.456C113.664 65.712 114.123 65.9467 114.4 66.16C115.104 66.7147 115.541 66.352 115.712 65.072H116.416C116.373 65.6693 116.341 66.3947 116.32 67.248C116.299 68.08 116.288 69.1893 116.288 70.576H115.584C115.456 69.7867 115.232 69.0187 114.912 68.272C114.613 67.5253 114.165 66.9067 113.568 66.416C112.992 65.9253 112.235 65.68 111.296 65.68C110.592 65.68 110.005 65.8827 109.536 66.288C109.067 66.672 108.832 67.248 108.832 68.016C108.832 68.656 109.024 69.2107 109.408 69.68C109.792 70.1493 110.283 70.5867 110.88 70.992C111.499 71.3973 112.16 71.8347 112.864 72.304C113.653 72.8373 114.357 73.3707 114.976 73.904C115.616 74.416 116.117 74.992 116.48 75.632C116.864 76.272 117.056 77.0187 117.056 77.872C117.056 78.8533 116.789 79.6853 116.256 80.368C115.744 81.0507 115.061 81.5733 114.208 81.936C113.355 82.2773 112.416 82.448 111.392 82.448C110.88 82.448 110.4 82.3947 109.952 82.288C109.504 82.2027 109.088 82.0853 108.704 81.936C108.469 81.808 108.235 81.68 108 81.552C107.787 81.4027 107.573 81.264 107.36 81.136C107.147 80.9867 106.955 81.008 106.784 81.2C106.613 81.392 106.485 81.7333 106.4 82.224H105.696C105.739 81.5413 105.771 80.7093 105.792 79.728C105.813 78.7467 105.824 77.4453 105.824 75.824H106.528C106.677 76.9973 106.901 78.032 107.2 78.928C107.499 79.824 107.936 80.528 108.512 81.04C109.109 81.5307 109.92 81.776 110.944 81.776C111.349 81.776 111.755 81.6907 112.16 81.52C112.565 81.328 112.896 81.0293 113.152 80.624C113.429 80.2187 113.568 79.6747 113.568 78.992C113.568 78.0533 113.237 77.2853 112.576 76.688C111.936 76.0693 111.104 75.4187 110.08 74.736C109.355 74.224 108.661 73.7227 108 73.232C107.36 72.72 106.837 72.1547 106.432 71.536C106.027 70.896 105.824 70.1387 105.824 69.264C105.824 68.304 106.048 67.5147 106.496 66.896C106.965 66.2773 107.584 65.8187 108.352 65.52C109.12 65.2 109.941 65.04 110.816 65.04ZM124.933 60.208V65.52H129.349V66.16H124.933V78.736C124.933 79.6107 125.093 80.2293 125.413 80.592C125.733 80.9547 126.191 81.136 126.789 81.136C127.343 81.136 127.834 80.912 128.261 80.464C128.709 80.016 129.093 79.2587 129.413 78.192L130.021 78.416C129.765 79.5467 129.306 80.5067 128.645 81.296C128.005 82.064 127.055 82.448 125.797 82.448C125.071 82.448 124.463 82.352 123.973 82.16C123.482 81.9893 123.055 81.7333 122.693 81.392C122.223 80.9013 121.903 80.3147 121.733 79.632C121.562 78.9493 121.477 78.0427 121.477 76.912V66.16H118.533V65.52H121.477V60.848C122.138 60.8267 122.757 60.7733 123.333 60.688C123.909 60.5813 124.442 60.4213 124.933 60.208ZM134.454 57.424C135.115 57.424 135.67 57.6373 136.118 58.064C136.566 58.4693 136.79 58.9813 136.79 59.6C136.79 60.2187 136.566 60.7413 136.118 61.168C135.67 61.5733 135.115 61.776 134.454 61.776C133.793 61.776 133.238 61.5733 132.79 61.168C132.342 60.7413 132.118 60.2187 132.118 59.6C132.118 58.9813 132.342 58.4693 132.79 58.064C133.238 57.6373 133.793 57.424 134.454 57.424ZM136.374 65.136V79.024C136.374 79.92 136.545 80.528 136.886 80.848C137.249 81.168 137.846 81.328 138.678 81.328V82C138.315 81.9787 137.75 81.9573 136.982 81.936C136.235 81.8933 135.467 81.872 134.678 81.872C133.931 81.872 133.163 81.8933 132.374 81.936C131.585 81.9573 130.998 81.9787 130.614 82V81.328C131.446 81.328 132.033 81.168 132.374 80.848C132.737 80.528 132.918 79.92 132.918 79.024V68.976C132.918 68.016 132.758 67.312 132.438 66.864C132.118 66.3947 131.51 66.16 130.614 66.16V65.488C131.297 65.552 131.958 65.584 132.598 65.584C133.323 65.584 133.995 65.552 134.614 65.488C135.254 65.4027 135.841 65.2853 136.374 65.136ZM151.12 65.04C151.93 65.04 152.613 65.1573 153.168 65.392C153.722 65.6053 154.17 65.904 154.512 66.288C154.896 66.6933 155.162 67.2373 155.312 67.92C155.461 68.5813 155.536 69.424 155.536 70.448V79.024C155.536 79.92 155.706 80.528 156.048 80.848C156.389 81.168 156.965 81.328 157.776 81.328V82C157.413 81.9787 156.848 81.9573 156.08 81.936C155.333 81.8933 154.597 81.872 153.872 81.872C153.146 81.872 152.432 81.8933 151.728 81.936C151.045 81.9573 150.522 81.9787 150.16 82V81.328C150.864 81.328 151.354 81.168 151.632 80.848C151.93 80.528 152.08 79.92 152.08 79.024V69.552C152.08 68.9333 152.037 68.3787 151.952 67.888C151.866 67.376 151.664 66.9707 151.344 66.672C151.045 66.352 150.565 66.192 149.904 66.192C149.157 66.192 148.485 66.416 147.888 66.864C147.312 67.312 146.842 67.9307 146.48 68.72C146.138 69.488 145.968 70.352 145.968 71.312V79.024C145.968 79.92 146.117 80.528 146.416 80.848C146.714 81.168 147.205 81.328 147.888 81.328V82C147.546 81.9787 147.034 81.9573 146.352 81.936C145.669 81.8933 144.965 81.872 144.24 81.872C143.514 81.872 142.757 81.8933 141.968 81.936C141.178 81.9573 140.592 81.9787 140.208 82V81.328C141.04 81.328 141.626 81.168 141.968 80.848C142.33 80.528 142.512 79.92 142.512 79.024V68.976C142.512 68.016 142.352 67.312 142.032 66.864C141.712 66.3947 141.104 66.16 140.208 66.16V65.488C140.89 65.552 141.552 65.584 142.192 65.584C142.917 65.584 143.589 65.552 144.208 65.488C144.848 65.4027 145.434 65.2853 145.968 65.136V68.624C146.522 67.344 147.258 66.4267 148.176 65.872C149.114 65.3173 150.096 65.04 151.12 65.04ZM160.752 65.04C161.562 65.04 162.245 65.1573 162.8 65.392C163.354 65.6053 163.802 65.904 164.144 66.288C164.528 66.6933 164.794 67.2373 164.944 67.92C165.093 68.5813 165.168 69.424 165.168 70.448V79.024C165.168 79.92 165.338 80.528 165.68 80.848C166.042 81.168 166.64 81.328 167.472 81.328V82C167.109 81.9787 166.544 81.9573 165.776 81.936C165.008 81.8933 164.25 81.872 163.504 81.872C162.778 81.872 162.064 81.8933 161.36 81.936C160.677 81.9573 160.154 81.9787 159.792 82V81.328C160.496 81.328 160.986 81.168 161.264 80.848C161.562 80.528 161.712 79.92 161.712 79.024V69.552C161.712 68.9333 161.669 68.3787 161.584 67.888C161.498 67.376 161.296 66.9707 160.976 66.672C160.656 66.352 160.154 66.192 159.472 66.192C158.725 66.192 158.053 66.4267 157.456 66.896C156.88 67.344 156.41 67.9627 156.048 68.752C155.706 69.52 155.536 70.384 155.536 71.344L155.408 68.688C155.984 67.28 156.752 66.32 157.712 65.808C158.693 65.296 159.706 65.04 160.752 65.04ZM183.81 65.136V78.544C183.81 79.504 183.97 80.2187 184.29 80.688C184.631 81.136 185.239 81.36 186.114 81.36V82.032C185.452 81.968 184.791 81.936 184.13 81.936C183.426 81.936 182.754 81.968 182.114 82.032C181.474 82.096 180.887 82.2133 180.354 82.384V78.896C179.82 80.176 179.074 81.0933 178.114 81.648C177.175 82.1813 176.183 82.448 175.138 82.448C174.348 82.448 173.676 82.3307 173.122 82.096C172.567 81.8827 172.108 81.5947 171.746 81.232C171.362 80.8053 171.095 80.2613 170.946 79.6C170.796 78.9173 170.722 78.064 170.722 77.04V68.976C170.722 68.016 170.562 67.312 170.242 66.864C169.922 66.3947 169.314 66.16 168.418 66.16V65.488C169.1 65.552 169.762 65.584 170.402 65.584C171.106 65.584 171.778 65.552 172.418 65.488C173.058 65.4027 173.644 65.2853 174.178 65.136V77.936C174.178 78.5547 174.22 79.12 174.306 79.632C174.391 80.144 174.594 80.5493 174.914 80.848C175.234 81.1467 175.746 81.296 176.45 81.296C177.196 81.296 177.858 81.072 178.434 80.624C179.031 80.176 179.5 79.568 179.842 78.8C180.183 78.032 180.354 77.168 180.354 76.208V68.976C180.354 68.016 180.194 67.312 179.874 66.864C179.554 66.3947 178.946 66.16 178.05 66.16V65.488C178.732 65.552 179.394 65.584 180.034 65.584C180.738 65.584 181.41 65.552 182.05 65.488C182.69 65.4027 183.276 65.2853 183.81 65.136ZM193.213 56.912V79.024C193.213 79.92 193.384 80.528 193.725 80.848C194.088 81.168 194.685 81.328 195.517 81.328V82C195.155 81.9787 194.589 81.9573 193.821 81.936C193.053 81.8933 192.285 81.872 191.517 81.872C190.749 81.872 189.971 81.8933 189.181 81.936C188.413 81.9573 187.837 81.9787 187.453 82V81.328C188.285 81.328 188.872 81.168 189.213 80.848C189.576 80.528 189.757 79.92 189.757 79.024V60.752C189.757 59.792 189.597 59.088 189.277 58.64C188.957 58.1707 188.349 57.936 187.453 57.936V57.264C188.136 57.328 188.797 57.36 189.437 57.36C190.141 57.36 190.813 57.328 191.453 57.264C192.093 57.1787 192.68 57.0613 193.213 56.912ZM210.432 65.136V84.752C210.432 85.6907 210.699 86.32 211.232 86.64C211.765 86.96 212.501 87.12 213.44 87.12V87.792C212.949 87.7707 212.267 87.7387 211.392 87.696C210.517 87.6747 209.579 87.664 208.576 87.664C207.872 87.664 207.179 87.6747 206.496 87.696C205.813 87.7387 205.291 87.7707 204.928 87.792V87.12C205.675 87.12 206.197 86.9707 206.496 86.672C206.816 86.3947 206.976 85.8613 206.976 85.072V68.976C206.976 68.016 206.816 67.312 206.496 66.864C206.176 66.3947 205.568 66.16 204.672 66.16V65.488C205.355 65.552 206.016 65.584 206.656 65.584C207.36 65.584 208.032 65.552 208.672 65.488C209.312 65.4027 209.899 65.2853 210.432 65.136ZM215.52 65.04C216.629 65.04 217.621 65.3493 218.496 65.968C219.392 66.5653 220.096 67.4507 220.608 68.624C221.12 69.7973 221.376 71.2587 221.376 73.008C221.376 74.288 221.227 75.504 220.928 76.656C220.629 77.7867 220.171 78.7893 219.552 79.664C218.955 80.5173 218.197 81.2 217.28 81.712C216.363 82.2027 215.275 82.448 214.016 82.448C213.077 82.448 212.245 82.2453 211.52 81.84C210.816 81.4347 210.315 80.9227 210.016 80.304L210.336 79.856C210.613 80.3893 210.997 80.8267 211.488 81.168C212 81.5093 212.629 81.68 213.376 81.68C214.485 81.68 215.349 81.328 215.968 80.624C216.608 79.8987 217.056 78.928 217.312 77.712C217.568 76.4747 217.696 75.0773 217.696 73.52C217.696 71.7707 217.568 70.3627 217.312 69.296C217.056 68.208 216.672 67.4187 216.16 66.928C215.648 66.416 215.029 66.16 214.304 66.16C213.344 66.16 212.469 66.544 211.68 67.312C210.912 68.08 210.443 69.232 210.272 70.768L209.952 70.096C210.229 68.496 210.869 67.2587 211.872 66.384C212.896 65.488 214.112 65.04 215.52 65.04ZM228.157 82.224C227.261 82.224 226.493 82.0533 225.853 81.712C225.213 81.3707 224.733 80.9013 224.413 80.304C224.093 79.7067 223.933 79.024 223.933 78.256C223.933 77.3173 224.147 76.56 224.573 75.984C225 75.3867 225.544 74.9067 226.205 74.544C226.888 74.1813 227.603 73.8827 228.349 73.648C229.117 73.392 229.832 73.1573 230.493 72.944C231.176 72.7093 231.731 72.4427 232.157 72.144C232.605 71.8453 232.829 71.4507 232.829 70.96V68.784C232.829 68.016 232.701 67.408 232.445 66.96C232.211 66.4907 231.88 66.16 231.453 65.968C231.048 65.776 230.557 65.68 229.981 65.68C229.491 65.68 228.968 65.7547 228.413 65.904C227.859 66.032 227.421 66.2987 227.101 66.704C227.571 66.832 227.955 67.088 228.253 67.472C228.573 67.8347 228.733 68.2933 228.733 68.848C228.733 69.4453 228.531 69.9147 228.125 70.256C227.741 70.5973 227.251 70.768 226.653 70.768C225.992 70.768 225.501 70.5653 225.181 70.16C224.861 69.7333 224.701 69.2427 224.701 68.688C224.701 68.112 224.84 67.6427 225.117 67.28C225.416 66.9173 225.8 66.576 226.269 66.256C226.781 65.9147 227.432 65.6267 228.221 65.392C229.032 65.1573 229.928 65.04 230.909 65.04C231.827 65.04 232.616 65.1467 233.277 65.36C233.96 65.552 234.525 65.872 234.973 66.32C235.507 66.8107 235.859 67.4293 236.029 68.176C236.2 68.9013 236.285 69.7867 236.285 70.832V79.664C236.285 80.1973 236.349 80.5813 236.477 80.816C236.627 81.0293 236.861 81.136 237.181 81.136C237.395 81.136 237.597 81.0827 237.789 80.976C238.003 80.8693 238.248 80.7093 238.525 80.496L238.845 81.04C238.397 81.4027 237.939 81.6907 237.469 81.904C237.021 82.1173 236.445 82.224 235.741 82.224C235.059 82.224 234.504 82.1173 234.077 81.904C233.651 81.6907 233.331 81.3813 233.117 80.976C232.925 80.5707 232.829 80.0693 232.829 79.472C232.275 80.368 231.613 81.0507 230.845 81.52C230.077 81.9893 229.181 82.224 228.157 82.224ZM229.693 80.688C230.291 80.688 230.845 80.5173 231.357 80.176C231.891 79.8347 232.381 79.3227 232.829 78.64V72.272C232.595 72.6133 232.253 72.912 231.805 73.168C231.357 73.4027 230.877 73.648 230.365 73.904C229.853 74.16 229.363 74.4587 228.893 74.8C228.445 75.12 228.072 75.536 227.773 76.048C227.475 76.56 227.325 77.2107 227.325 78C227.325 78.832 227.539 79.4933 227.965 79.984C228.392 80.4533 228.968 80.688 229.693 80.688ZM247.93 65.04C248.655 65.04 249.348 65.136 250.01 65.328C250.671 65.4987 251.247 65.744 251.738 66.064C252.25 66.384 252.634 66.768 252.89 67.216C253.167 67.664 253.306 68.1547 253.306 68.688C253.306 69.328 253.124 69.8293 252.762 70.192C252.399 70.5547 251.93 70.736 251.354 70.736C250.778 70.736 250.298 70.576 249.914 70.256C249.53 69.936 249.338 69.4773 249.338 68.88C249.338 68.3253 249.498 67.8773 249.818 67.536C250.138 67.1733 250.511 66.9387 250.938 66.832C250.746 66.512 250.404 66.2453 249.914 66.032C249.444 65.7973 248.932 65.68 248.378 65.68C247.802 65.68 247.247 65.8293 246.714 66.128C246.202 66.4267 245.743 66.8853 245.338 67.504C244.932 68.1227 244.602 68.9227 244.346 69.904C244.111 70.8853 243.994 72.0693 243.994 73.456C243.994 75.248 244.196 76.6773 244.602 77.744C245.028 78.7893 245.583 79.536 246.266 79.984C246.948 80.432 247.684 80.656 248.474 80.656C248.986 80.656 249.508 80.56 250.042 80.368C250.596 80.176 251.119 79.856 251.61 79.408C252.122 78.96 252.57 78.352 252.954 77.584L253.562 77.808C253.327 78.512 252.954 79.2267 252.442 79.952C251.951 80.6773 251.3 81.2747 250.49 81.744C249.679 82.2133 248.687 82.448 247.514 82.448C246.17 82.448 244.954 82.1173 243.866 81.456C242.778 80.7947 241.914 79.8347 241.274 78.576C240.634 77.296 240.314 75.7387 240.314 73.904C240.314 72.112 240.634 70.5547 241.274 69.232C241.935 67.888 242.842 66.8533 243.994 66.128C245.146 65.4027 246.458 65.04 247.93 65.04ZM260.994 56.912V79.024C260.994 79.92 261.143 80.528 261.442 80.848C261.762 81.168 262.295 81.328 263.042 81.328V82C262.679 81.9787 262.135 81.9573 261.41 81.936C260.706 81.8933 259.991 81.872 259.266 81.872C258.519 81.872 257.751 81.8933 256.962 81.936C256.194 81.9573 255.618 81.9787 255.234 82V81.328C256.066 81.328 256.652 81.168 256.994 80.848C257.356 80.528 257.538 79.92 257.538 79.024V60.752C257.538 59.792 257.367 59.088 257.026 58.64C256.706 58.1707 256.108 57.936 255.234 57.936V57.264C255.916 57.328 256.578 57.36 257.218 57.36C257.922 57.36 258.594 57.328 259.234 57.264C259.874 57.1787 260.46 57.0613 260.994 56.912ZM271.234 65.488V66.128C270.658 66.2133 270.103 66.4053 269.57 66.704C269.036 67.0027 268.514 67.4187 268.002 67.952L264.162 71.984L264.578 71.184L270.37 79.664C270.69 80.112 270.999 80.4853 271.298 80.784C271.596 81.0613 271.97 81.2427 272.418 81.328V82C272.14 81.9787 271.724 81.9573 271.17 81.936C270.636 81.8933 270.103 81.872 269.57 81.872C268.866 81.872 268.151 81.8933 267.426 81.936C266.7 81.9573 266.167 81.9787 265.826 82V81.328C266.252 81.328 266.54 81.2213 266.69 81.008C266.86 80.7947 266.839 80.5387 266.626 80.24L263.106 74.736C262.743 74.224 262.412 73.8933 262.114 73.744C261.815 73.5947 261.388 73.5093 260.834 73.488V72.848C261.452 72.784 261.954 72.6667 262.338 72.496C262.743 72.3253 263.116 72.048 263.458 71.664L265.858 69.232C266.54 68.5493 266.882 67.984 266.882 67.536C266.882 67.0667 266.658 66.7253 266.21 66.512C265.783 66.2773 265.207 66.1493 264.482 66.128V65.488C265.058 65.5093 265.687 65.5413 266.37 65.584C267.074 65.6053 267.66 65.616 268.13 65.616C268.514 65.616 268.898 65.616 269.282 65.616C269.687 65.5947 270.06 65.5733 270.402 65.552C270.743 65.5307 271.02 65.5093 271.234 65.488ZM286.12 60.208V65.52H290.536V66.16H286.12V78.736C286.12 79.6107 286.28 80.2293 286.6 80.592C286.92 80.9547 287.379 81.136 287.976 81.136C288.531 81.136 289.022 80.912 289.448 80.464C289.896 80.016 290.28 79.2587 290.6 78.192L291.208 78.416C290.952 79.5467 290.494 80.5067 289.832 81.296C289.192 82.064 288.243 82.448 286.984 82.448C286.259 82.448 285.651 82.352 285.16 82.16C284.67 81.9893 284.243 81.7333 283.88 81.392C283.411 80.9013 283.091 80.3147 282.92 79.632C282.75 78.9493 282.664 78.0427 282.664 76.912V66.16H279.72V65.52H282.664V60.848C283.326 60.8267 283.944 60.7733 284.52 60.688C285.096 60.5813 285.63 60.4213 286.12 60.208ZM302.106 65.04C302.724 65.04 303.247 65.168 303.674 65.424C304.122 65.68 304.452 66.0107 304.666 66.416C304.9 66.8 305.018 67.2373 305.018 67.728C305.018 68.3467 304.826 68.88 304.442 69.328C304.079 69.7547 303.588 69.968 302.97 69.968C302.436 69.968 301.978 69.808 301.594 69.488C301.231 69.168 301.05 68.7307 301.05 68.176C301.05 67.7067 301.167 67.312 301.402 66.992C301.658 66.6507 301.946 66.384 302.266 66.192C302.052 66.0213 301.796 65.9467 301.498 65.968C300.922 65.9893 300.388 66.1813 299.898 66.544C299.407 66.8853 298.991 67.3333 298.65 67.888C298.308 68.4213 298.042 68.9973 297.85 69.616C297.658 70.2347 297.562 70.8107 297.562 71.344V78.704C297.562 79.7493 297.85 80.4533 298.426 80.816C299.002 81.1573 299.802 81.328 300.826 81.328V82C300.335 81.9787 299.631 81.9573 298.714 81.936C297.818 81.8933 296.868 81.872 295.866 81.872C295.098 81.872 294.33 81.8933 293.562 81.936C292.794 81.9573 292.207 81.9787 291.802 82V81.328C292.633 81.328 293.22 81.168 293.562 80.848C293.924 80.528 294.106 79.92 294.106 79.024V68.976C294.106 68.016 293.946 67.312 293.626 66.864C293.306 66.3947 292.698 66.16 291.802 66.16V65.488C292.484 65.552 293.146 65.584 293.786 65.584C294.511 65.584 295.183 65.552 295.802 65.488C296.442 65.4027 297.028 65.2853 297.562 65.136V68.816C297.818 68.1973 298.159 67.6 298.586 67.024C299.012 66.448 299.524 65.9787 300.122 65.616C300.719 65.232 301.38 65.04 302.106 65.04ZM310.782 82.224C309.886 82.224 309.118 82.0533 308.478 81.712C307.838 81.3707 307.358 80.9013 307.038 80.304C306.718 79.7067 306.558 79.024 306.558 78.256C306.558 77.3173 306.772 76.56 307.198 75.984C307.625 75.3867 308.169 74.9067 308.83 74.544C309.513 74.1813 310.228 73.8827 310.974 73.648C311.742 73.392 312.457 73.1573 313.118 72.944C313.801 72.7093 314.356 72.4427 314.782 72.144C315.23 71.8453 315.454 71.4507 315.454 70.96V68.784C315.454 68.016 315.326 67.408 315.07 66.96C314.836 66.4907 314.505 66.16 314.078 65.968C313.673 65.776 313.182 65.68 312.606 65.68C312.116 65.68 311.593 65.7547 311.038 65.904C310.484 66.032 310.046 66.2987 309.726 66.704C310.196 66.832 310.58 67.088 310.878 67.472C311.198 67.8347 311.358 68.2933 311.358 68.848C311.358 69.4453 311.156 69.9147 310.75 70.256C310.366 70.5973 309.876 70.768 309.278 70.768C308.617 70.768 308.126 70.5653 307.806 70.16C307.486 69.7333 307.326 69.2427 307.326 68.688C307.326 68.112 307.465 67.6427 307.742 67.28C308.041 66.9173 308.425 66.576 308.894 66.256C309.406 65.9147 310.057 65.6267 310.846 65.392C311.657 65.1573 312.553 65.04 313.534 65.04C314.452 65.04 315.241 65.1467 315.902 65.36C316.585 65.552 317.15 65.872 317.598 66.32C318.132 66.8107 318.484 67.4293 318.654 68.176C318.825 68.9013 318.91 69.7867 318.91 70.832V79.664C318.91 80.1973 318.974 80.5813 319.102 80.816C319.252 81.0293 319.486 81.136 319.806 81.136C320.02 81.136 320.222 81.0827 320.414 80.976C320.628 80.8693 320.873 80.7093 321.15 80.496L321.47 81.04C321.022 81.4027 320.564 81.6907 320.094 81.904C319.646 82.1173 319.07 82.224 318.366 82.224C317.684 82.224 317.129 82.1173 316.702 81.904C316.276 81.6907 315.956 81.3813 315.742 80.976C315.55 80.5707 315.454 80.0693 315.454 79.472C314.9 80.368 314.238 81.0507 313.47 81.52C312.702 81.9893 311.806 82.224 310.782 82.224ZM312.318 80.688C312.916 80.688 313.47 80.5173 313.982 80.176C314.516 79.8347 315.006 79.3227 315.454 78.64V72.272C315.22 72.6133 314.878 72.912 314.43 73.168C313.982 73.4027 313.502 73.648 312.99 73.904C312.478 74.16 311.988 74.4587 311.518 74.8C311.07 75.12 310.697 75.536 310.398 76.048C310.1 76.56 309.95 77.2107 309.95 78C309.95 78.832 310.164 79.4933 310.59 79.984C311.017 80.4533 311.593 80.688 312.318 80.688ZM337.403 56.912V78.512C337.403 79.472 337.563 80.1867 337.883 80.656C338.224 81.104 338.832 81.328 339.707 81.328V82C339.045 81.936 338.384 81.904 337.722 81.904C336.997 81.904 336.315 81.936 335.675 82C335.056 82.064 334.48 82.1813 333.947 82.352V60.752C333.947 59.792 333.776 59.088 333.435 58.64C333.115 58.1707 332.517 57.936 331.643 57.936V57.264C332.325 57.328 332.987 57.36 333.627 57.36C334.331 57.36 335.003 57.328 335.643 57.264C336.283 57.1787 336.869 57.0613 337.403 56.912ZM330.203 65.04C331.141 65.04 331.995 65.2427 332.763 65.648C333.552 66.0533 334.107 66.736 334.427 67.696L334.043 68.048C333.744 67.28 333.307 66.7253 332.731 66.384C332.155 66.0213 331.504 65.84 330.779 65.84C329.563 65.84 328.571 66.4907 327.803 67.792C327.035 69.072 326.661 71.056 326.683 73.744C326.683 75.5147 326.832 76.9653 327.131 78.096C327.429 79.2053 327.867 80.0267 328.443 80.56C329.04 81.0933 329.755 81.36 330.587 81.36C331.419 81.36 332.165 81.008 332.827 80.304C333.509 79.6 333.915 78.5867 334.043 77.264L334.331 77.936C334.117 79.3867 333.605 80.5067 332.795 81.296C331.984 82.064 330.896 82.448 329.531 82.448C328.229 82.448 327.077 82.1387 326.075 81.52C325.093 80.88 324.336 79.92 323.803 78.64C323.269 77.3387 323.003 75.7067 323.003 73.744C323.003 71.8027 323.323 70.192 323.963 68.912C324.624 67.6107 325.499 66.64 326.587 66C327.675 65.36 328.88 65.04 330.203 65.04ZM345.048 57.424C345.709 57.424 346.264 57.6373 346.712 58.064C347.16 58.4693 347.384 58.9813 347.384 59.6C347.384 60.2187 347.16 60.7413 346.712 61.168C346.264 61.5733 345.709 61.776 345.048 61.776C344.386 61.776 343.832 61.5733 343.384 61.168C342.936 60.7413 342.712 60.2187 342.712 59.6C342.712 58.9813 342.936 58.4693 343.384 58.064C343.832 57.6373 344.386 57.424 345.048 57.424ZM346.968 65.136V79.024C346.968 79.92 347.138 80.528 347.48 80.848C347.842 81.168 348.44 81.328 349.272 81.328V82C348.909 81.9787 348.344 81.9573 347.576 81.936C346.829 81.8933 346.061 81.872 345.272 81.872C344.525 81.872 343.757 81.8933 342.968 81.936C342.178 81.9573 341.592 81.9787 341.208 82V81.328C342.04 81.328 342.626 81.168 342.968 80.848C343.33 80.528 343.512 79.92 343.512 79.024V68.976C343.512 68.016 343.352 67.312 343.032 66.864C342.712 66.3947 342.104 66.16 341.208 66.16V65.488C341.89 65.552 342.552 65.584 343.192 65.584C343.917 65.584 344.589 65.552 345.208 65.488C345.848 65.4027 346.434 65.2853 346.968 65.136ZM361.938 65.04C362.791 65.04 363.484 65.1573 364.018 65.392C364.572 65.6053 365.031 65.904 365.394 66.288C365.778 66.6933 366.044 67.216 366.194 67.856C366.364 68.496 366.45 69.36 366.45 70.448V79.024C366.45 79.92 366.62 80.528 366.962 80.848C367.324 81.168 367.922 81.328 368.753 81.328V82C368.391 81.9787 367.826 81.9573 367.058 81.936C366.29 81.8933 365.532 81.872 364.786 81.872C364.06 81.872 363.335 81.8933 362.61 81.936C361.906 81.9573 361.372 81.9787 361.01 82V81.328C361.735 81.328 362.247 81.168 362.546 80.848C362.844 80.528 362.994 79.92 362.994 79.024V69.552C362.994 68.9333 362.94 68.3787 362.834 67.888C362.727 67.376 362.503 66.9707 362.162 66.672C361.82 66.352 361.308 66.192 360.626 66.192C359.836 66.192 359.132 66.416 358.514 66.864C357.916 67.312 357.436 67.9307 357.074 68.72C356.732 69.488 356.562 70.352 356.562 71.312V79.024C356.562 79.92 356.711 80.528 357.01 80.848C357.33 81.168 357.842 81.328 358.546 81.328V82C358.204 81.9787 357.682 81.9573 356.978 81.936C356.295 81.8933 355.58 81.872 354.834 81.872C354.108 81.872 353.351 81.8933 352.562 81.936C351.772 81.9573 351.186 81.9787 350.802 82V81.328C351.633 81.328 352.22 81.168 352.562 80.848C352.924 80.528 353.106 79.92 353.106 79.024V68.976C353.106 68.016 352.946 67.312 352.626 66.864C352.306 66.3947 351.698 66.16 350.802 66.16V65.488C351.484 65.552 352.146 65.584 352.786 65.584C353.511 65.584 354.183 65.552 354.802 65.488C355.442 65.4027 356.028 65.2853 356.562 65.136V68.624C357.116 67.3013 357.874 66.3733 358.834 65.84C359.815 65.3067 360.85 65.04 361.938 65.04ZM375.818 88.016C374.623 88.016 373.514 87.8987 372.49 87.664C371.487 87.4293 370.676 87.0667 370.058 86.576C369.46 86.1067 369.162 85.4987 369.162 84.752C369.162 84.048 369.46 83.4293 370.058 82.896C370.655 82.3627 371.498 81.9573 372.586 81.68L372.81 82.192C372.362 82.384 372.01 82.6933 371.754 83.12C371.519 83.5467 371.402 84.016 371.402 84.528C371.402 85.4667 371.839 86.192 372.714 86.704C373.588 87.216 374.74 87.472 376.17 87.472C377.13 87.472 378.036 87.344 378.89 87.088C379.764 86.8533 380.468 86.4587 381.002 85.904C381.556 85.3493 381.834 84.6347 381.834 83.76C381.834 83.0773 381.588 82.5013 381.098 82.032C380.607 81.584 379.636 81.36 378.186 81.36H375.946C375.199 81.36 374.506 81.296 373.866 81.168C373.226 81.04 372.703 80.7947 372.298 80.432C371.914 80.048 371.722 79.5147 371.722 78.832C371.722 78.064 372.042 77.3387 372.682 76.656C373.322 75.9733 374.399 75.3013 375.914 74.64L376.298 74.928C375.679 75.2693 375.124 75.6213 374.634 75.984C374.164 76.3253 373.93 76.752 373.93 77.264C373.93 77.9467 374.42 78.288 375.402 78.288H379.21C380.212 78.288 381.119 78.4267 381.93 78.704C382.74 78.96 383.391 79.376 383.882 79.952C384.372 80.528 384.618 81.2853 384.618 82.224C384.618 83.2267 384.287 84.1653 383.626 85.04C382.986 85.936 382.015 86.6507 380.714 87.184C379.412 87.7387 377.78 88.016 375.818 88.016ZM376.01 75.184C374.922 75.184 373.93 75.0133 373.034 74.672C372.138 74.3093 371.434 73.7547 370.922 73.008C370.41 72.2613 370.154 71.3013 370.154 70.128C370.154 68.9547 370.41 67.9947 370.922 67.248C371.434 66.48 372.138 65.9253 373.034 65.584C373.93 65.2213 374.922 65.04 376.01 65.04C377.14 65.04 378.143 65.2213 379.018 65.584C379.892 65.9253 380.586 66.48 381.098 67.248C381.61 67.9947 381.866 68.9547 381.866 70.128C381.866 71.3013 381.61 72.2613 381.098 73.008C380.586 73.7547 379.892 74.3093 379.018 74.672C378.143 75.0133 377.14 75.184 376.01 75.184ZM376.01 74.608C376.756 74.608 377.332 74.288 377.738 73.648C378.143 73.008 378.345 71.8347 378.345 70.128C378.345 68.4213 378.143 67.248 377.738 66.608C377.332 65.9467 376.756 65.616 376.01 65.616C375.306 65.616 374.74 65.9467 374.314 66.608C373.887 67.248 373.674 68.4213 373.674 70.128C373.674 71.8347 373.887 73.008 374.314 73.648C374.74 74.288 375.306 74.608 376.01 74.608ZM380.746 67.728L380.17 67.504C380.468 66.7573 380.98 66.1067 381.706 65.552C382.431 64.9973 383.188 64.72 383.978 64.72C384.575 64.72 385.044 64.8907 385.385 65.232C385.748 65.552 385.93 66.0107 385.93 66.608C385.93 67.2693 385.748 67.7387 385.385 68.016C385.044 68.2933 384.682 68.432 384.298 68.432C383.956 68.432 383.636 68.3147 383.338 68.08C383.06 67.8453 382.9 67.4827 382.858 66.992C382.815 66.48 382.975 65.8293 383.338 65.04L383.69 65.168C382.836 65.5093 382.207 65.872 381.802 66.256C381.418 66.6187 381.066 67.1093 380.746 67.728Z" fill="white"/>
<g filter="url(#filter1_d_2_11)">
<path d="M34.048 13L4.02141 22.8276L10.0492 33.3612L40.0705 23.5393L34.048 13ZM50.7128 13L44.6743 23.5336L74.7009 33.3555L80.7448 22.8276L50.7128 13ZM43.8874 26.6311V43.872C52.6692 41.0026 61.45 38.1297 70.2309 35.2572C61.4498 32.3819 52.669 29.505 43.8874 26.6311ZM40.8842 26.6368C31.6142 29.6575 22.5817 32.7398 14.5192 35.2572C23.3076 38.1286 32.0954 41.0019 40.8842 43.872L40.8842 26.6368ZM33.2665 32.2053C33.5189 33.0541 33.0762 33.9599 32.2761 34.221C30.2983 34.8811 28.2591 35.5591 26.2751 36.2366C25.484 36.5074 24.6355 36.0414 24.38 35.2003C24.1256 34.3589 24.5583 33.4564 25.3489 33.1847C27.3411 32.5044 29.3887 31.8081 31.3714 31.1463C32.3983 30.8728 33.0361 31.3165 33.2665 32.2053ZM53.3949 31.1463C55.3775 31.808 57.4092 32.5044 59.4013 33.1846C60.199 33.4484 60.6392 34.3533 60.3863 35.2003C60.1307 36.0382 59.2857 36.5033 58.4965 36.2366C56.5124 35.5591 54.4679 34.8811 52.4901 34.221C51.6924 33.9572 51.2522 33.0522 51.5051 32.2053C51.8902 31.1273 52.6577 30.956 53.3949 31.1463ZM10.0332 37.159L4 47.6983L34.048 57.4917L40.0919 46.9695L10.0332 37.159ZM74.7117 37.159L44.6743 46.9752L50.7128 57.4917L80.7448 47.6698L74.7117 37.159ZM40.8842 51.7181L35.9913 60.2475C35.6311 60.8566 34.9317 61.1368 34.2836 60.9308L10.8576 53.2669L10.6488 70.1377L40.8842 82.4137V51.7181ZM43.882 51.758V82.4421L73.8658 70.1377V53.2783L50.4826 60.9308C49.8274 61.1495 49.1164 60.8677 48.7535 60.2475L43.882 51.758Z" fill="white"/>
</g>
<defs>
<filter id="filter0_d_2_11" x="102.736" y="17.44" width="94.4195" height="43.232" filterUnits="userSpaceOnUse" color-interpolation-filters="sRGB">
<feFlood flood-opacity="0" result="BackgroundImageFix"/>
<feColorMatrix in="SourceAlpha" type="matrix" values="0 0 0 0 0 0 0 0 0 0 0 0 0 0 0 0 0 0 127 0" result="hardAlpha"/>
<feOffset dy="4"/>
<feGaussianBlur stdDeviation="2"/>
<feComposite in2="hardAlpha" operator="out"/>
<feColorMatrix type="matrix" values="0 0 0 0 0 0 0 0 0 0 0 0 0 0 0 0 0 0 0.25 0"/>
<feBlend mode="normal" in2="BackgroundImageFix" result="effect1_dropShadow_2_11"/>
<feBlend mode="normal" in="SourceGraphic" in2="effect1_dropShadow_2_11" result="shape"/>
</filter>
<filter id="filter1_d_2_11" x="0" y="13" width="84.7448" height="77.4421" filterUnits="userSpaceOnUse" color-interpolation-filters="sRGB">
<feFlood flood-opacity="0" result="BackgroundImageFix"/>
<feColorMatrix in="SourceAlpha" type="matrix" values="0 0 0 0 0 0 0 0 0 0 0 0 0 0 0 0 0 0 127 0" result="hardAlpha"/>
<feOffset dy="4"/>
<feGaussianBlur stdDeviation="2"/>
<feComposite in2="hardAlpha" operator="out"/>
<feColorMatrix type="matrix" values="0 0 0 0 0 0 0 0 0 0 0 0 0 0 0 0 0 0 0.25 0"/>
<feBlend mode="normal" in2="BackgroundImageFix" result="effect1_dropShadow_2_11"/>
<feBlend mode="normal" in="SourceGraphic" in2="effect1_dropShadow_2_11" result="shape"/>
</filter>
</defs>
</svg>
